custom-analysis
version=1
nRows=11
nColumns=42
inDegrees=no

This file contains tibia displacement and acting force.

Units are S.I. units (seconds, meters, Newtons, ...)
Angles are in degrees.

endheader
time	APT	SIT	knee_angle	aACL_R_force	pACL_R_force	aPCL_R_force	pPCL_R_force	aMCL_R_force	mMCL_R_force	pMCL_R_force	aLCL_R_force	mLCL_R_force	pLCL_R_force	aACL_R_length	pACL_R_length	aPCL_R_length	pPCL_R_length	aMCL_R_length	mMCL_R_length	pMCL_R_length	aLCL_R_length	mLCL_R_length	pLCL_R_length	aACL_R_strain	pACL_R_strain	aPCL_R_strain	pPCL_R_strain	aMCL_R_strain	mMCL_R_strain	pMCL_R_strain	aLCL_R_strain	mLCL_R_strain	pLCL_R_strain	femur_lat_meniscii_force_r	femur_lat_meniscii_torque_r	femur_med_meniscii_force_r	femur_med_meniscii_torque_r	femur_lat_tibia_force_r	femur_lat_tibia_torque_r	femur_med_tibia_force_r	femur_med_tibia_torque_r
      0.14481896	      0.00222100	     -0.00028750	     60.00037120	      0.00000000	      0.00000000	    620.27239009	    229.11805443	     27.65712706	      2.85586366	      0.00000000	      0.00000000	      0.00000000	      0.00000000	      0.03057142	      0.02351439	      0.03523390	      0.03195470	      0.06152660	      0.06027846	      0.05676904	      0.05263247	      0.04780618	      0.04331256	     -0.01400011	     -0.07272874	      0.13309401	      0.06204829	      0.06030978	      0.00811050	     -0.06519174	     -0.05975161	     -0.15114764	     -0.17251963	    145.39551197	     56.70923673	    139.21053285	     56.61259006	    105.09366773	      3.93775100	    495.29733774	      8.52545971
      0.14605007	      0.00223267	     -0.00028862	     60.00037120	      0.00000000	      0.00000000	    619.62335397	    229.09716199	     28.10934458	      3.30128542	      0.00000000	      0.00000000	      0.00000000	      0.00000000	      0.03057805	      0.02351898	      0.03522836	      0.03194847	      0.06153250	      0.06028273	      0.05677225	      0.05263032	      0.04780396	      0.04331024	     -0.01378633	     -0.07254797	      0.13291576	      0.06184151	      0.06041150	      0.00818198	     -0.06513881	     -0.05979014	     -0.15118694	     -0.17256394	    143.28406250	     55.88236611	    136.10844255	     55.36055257	    104.16727334	      3.90362105	    491.15633008	      8.44200718
      0.14728118	      0.00224388	     -0.00029015	     60.00037120	      0.00000000	      0.00000000	    618.60998585	    227.94355881	     27.71482614	      2.87309418	      0.00000000	      0.00000000	      0.00000000	      0.00000000	      0.03058482	      0.02352379	      0.03522344	      0.03194294	      0.06153860	      0.06028730	      0.05677582	      0.05262858	      0.04780216	      0.04330830	     -0.01356776	     -0.07235832	      0.13275759	      0.06165747	      0.06051664	      0.00825846	     -0.06507998	     -0.05982116	     -0.15121890	     -0.17260091	    145.18960657	     56.63819311	    137.71162377	     56.00685659	    103.75306538	      3.88811846	    491.40762235	      8.44211798
      0.14892579	      0.00225851	     -0.00029156	     60.00037120	      0.00000000	      0.00000000	    617.74210326	    227.80939412	     28.21695936	      3.36912266	      0.00000000	      0.00000000	      0.00000000	      0.00000000	      0.03059349	      0.02352986	      0.03521646	      0.03193523	      0.06154582	      0.06029260	      0.05677986	      0.05262553	      0.04779901	      0.04330492	     -0.01328822	     -0.07211875	      0.13253318	      0.06140136	      0.06064115	      0.00834714	     -0.06501342	     -0.05987565	     -0.15127484	     -0.17266560	    142.97435855	     55.80226136	    134.02661316	     54.51899799	    102.52622747	      3.84279818	    486.26726456	      8.34159657
      0.15015239	      0.00226893	     -0.00029320	     60.00037120	      0.00000000	      0.00000000	    616.56512965	    226.08794001	     27.33112289	      2.44162383	      0.00000000	      0.00000000	      0.00000000	      0.00000000	      0.03060022	      0.02353474	      0.03521206	      0.03193036	      0.06155152	      0.06029699	      0.05678338	      0.05262385	      0.04779725	      0.04330294	     -0.01307112	     -0.07192622	      0.13239171	      0.06123943	      0.06073939	      0.00842047	     -0.06495554	     -0.05990559	     -0.15130610	     -0.17270340	    147.05885650	     57.41098122	    136.58191703	     55.53757617	    102.44163830	      3.83938379	    489.08622611	      8.38365959
      0.15137900	      0.00227925	     -0.00029402	     60.00037120	      0.00000000	      0.00000000	    615.92737009	    225.97454274	     27.68557663	      2.78902723	      0.00000000	      0.00000000	      0.00000000	      0.00000000	      0.03060639	      0.02353903	      0.03520701	      0.03192489	      0.06155627	      0.06030048	      0.05678604	      0.05262133	      0.04779464	      0.04330008	     -0.01287236	     -0.07175720	      0.13222924	      0.06105765	      0.06082118	      0.00847880	     -0.06491167	     -0.05995062	     -0.15135249	     -0.17275807	    145.36124707	     56.77890800	    134.17143219	     54.56403487	    101.86296788	      3.81840196	    485.84714197	      8.32207875
      0.15295789	      0.00229223	     -0.00029565	     60.00037120	      0.00000000	      0.00000000	    614.61537790	    224.31736017	     27.03296281	      2.08849724	      0.00000000	      0.00000000	      0.00000000	      0.00000000	      0.03061454	      0.02354480	      0.03520128	      0.03191869	      0.06156269	      0.06030539	      0.05678997	      0.05261870	      0.04779188	      0.04329694	     -0.01260927	     -0.07152980	      0.13204495	      0.06085166	      0.06093176	      0.00856090	     -0.06484699	     -0.05999765	     -0.15140155	     -0.17281803	    148.58499854	     58.05977923	    135.96287725	     55.28304613	    101.73160834	      3.81258518	    487.35321004	      8.32758637
      0.15427230	      0.00230302	     -0.00029622	     60.00037120	      0.00000000	      0.00000000	    614.11485341	    224.69522339	     27.76099372	      2.82306788	      0.00000000	      0.00000000	      0.00000000	      0.00000000	      0.03062088	      0.02354911	      0.03519582	      0.03191290	      0.06156707	      0.06030857	      0.05679238	      0.05261568	      0.04778874	      0.04329344	     -0.01240490	     -0.07135993	      0.13186949	      0.06065928	      0.06100727	      0.00861412	     -0.06480730	     -0.06005155	     -0.15145724	     -0.17288476	    145.11010678	     56.73067513	    131.37260730	     53.43810105	    100.91958149	      3.78293115	    482.31729969	      8.23914067
      0.15558671	      0.00231337	     -0.00029760	     60.00037120	      0.00000000	      0.00000000	    612.98288986	    223.12554448	     26.98382326	      2.00983269	      0.00000000	      0.00000000	      0.00000000	      0.00000000	      0.03062760	      0.02355388	      0.03519137	      0.03190816	      0.06157200	      0.06031240	      0.05679550	      0.05261357	      0.04778650	      0.04329082	     -0.01218821	     -0.07117175	      0.13172624	      0.06050172	      0.06109226	      0.00867819	     -0.06475594	     -0.06008932	     -0.15149701	     -0.17293498	    148.65736390	     58.14003178	    134.93496372	     54.86509495	    100.81057247	      3.77865380	    484.73575614	      8.25101197
      0.15690112	      0.00232349	     -0.00029825	     60.00037120	      0.00000000	      0.00000000	    612.46169310	    223.35563709	     27.53226544	      2.57102461	      0.00000000	      0.00000000	      0.00000000	      0.00000000	      0.03063404	      0.02355843	      0.03518626	      0.03190282	      0.06157595	      0.06031531	      0.05679773	      0.05261067	      0.04778347	      0.04328737	     -0.01198061	     -0.07099238	      0.13156194	      0.06032404	      0.06116035	      0.00872686	     -0.06471930	     -0.06014102	     -0.15155077	     -0.17300083	    145.92837796	     57.11078011	    130.93392955	     53.25459807	     99.59056683	      3.74207424	    480.41455240	      8.16717051
      0.15821553	      0.00233310	     -0.00029957	     60.00037120	      0.00000000	      0.00000000	    611.41017580	    221.95561522	     26.84618513	      1.85517896	      0.00000000	      0.00000000	      0.00000000	      0.00000000	      0.03064094	      0.02356358	      0.03518195	      0.03189832	      0.06158027	      0.06031868	      0.05680045	      0.05260851	      0.04778117	      0.04328462	     -0.01175776	     -0.07078894	      0.13142352	      0.06017449	      0.06123478	      0.00878321	     -0.06467439	     -0.06017966	     -0.15159166	     -0.17305336	    149.02575213	     58.34124067	    133.95670897	     54.46702737	     98.93325768	      3.71699275	    482.57755638	      8.20215052
